<?xml version="1.0" standalone="no"?>
<svg xmlns="http://www.w3.org/2000/svg" viewBox="0 0 92.983 33.136" width="92.983" height="33.136"><g fill="#91a16a" color="#91a16a" transform="translate(0, 0) scale(0.6170213)"><svg width="46.0" height="47.0" x="0.0" y="0.0" viewBox="0 0 46 47"><path fill="currentColor" fill-rule="evenodd" d="M29.368 34c-.357-2.817-1.256-5.625-2.664-8.333C31.446 17.977 37.79 10.85 40.967 7.88c.424-.391.43-1.048.026-1.452a1.09 1.09 0 0 0-1.5-.03c-3.121 2.922-9.208 9.727-13.978 17.191a32.399 32.399 0 0 0-3.317-4.38A33.66 33.66 0 0 0 21 17.944C25.495 9.464 34.858 2.943 43.85 2c.536 7.76.436 28.055-14.482 32M45.735.954c1.633 19.467-4.343 32.71-16.014 35.665.025.822.004 1.645-.062 2.464-.05.567-.53.977-1.122.948-.575-.047-1-.553-.954-1.12.333-4.033-.589-8.19-2.623-12.13a1.005 1.005 0 0 1-.247-.483 30.13 30.13 0 0 0-3.759-5.38 31.99 31.99 0 0 0-1.392-1.493 1.041 1.041 0 0 1-.404-.408c-4.85-4.747-11.072-7.914-16.908-8.55-.828 11.951 1.479 22.016 6.387 27.727 2.99 3.476 6.928 5.405 11.703 5.73a1.04 1.04 0 0 1 .966 1.107 1.026 1.026 0 0 1-1.03.969c-.023 0-.044 0-.072-.004-5.349-.37-9.77-2.54-13.139-6.452C1.572 33.16-.84 22.404.261 9.257c.044-.56.5-1.026 1.095-.948 6.283.368 13.073 3.535 18.444 8.463C24.812 7.532 35.028.567 44.637.004c.553-.053 1.051.392 1.098.95zM5.766 14.286C11 19.306 23.355 34.181 25.975 45.738a1.046 1.046 0 0 1-.789 1.24 1.224 1.224 0 0 1-.23.022c-.475 0-.906-.327-1.013-.807C21.427 35.089 9.413 20.652 4.32 15.776a1.026 1.026 0 0 1-.027-1.46c.4-.41 1.064-.421 1.474-.03z"></path></svg></g><line x1="40.383" y1="1" x2="40.383" y2="28" stroke="#014d5a" stroke-linecap="round"></line><path fill="#014d5a" fill-rule="nonzero" d="M5.66 8.74L5.66 8.74Q6.14 8.74 6.77 9.02Q7.39 9.31 7.87 9.77L7.87 9.77Q7.75 8.81 7.57 7.96Q7.39 7.10 7.04 6.19Q6.70 5.28 6.12 4.20Q5.54 3.12 4.68 1.73L4.68 1.73Q4.75 1.51 5.00 1.22Q5.26 0.94 5.58 0.68Q5.90 0.43 6.25 0.24Q6.60 0.05 6.91 0L6.91 0Q7.58 0.74 8.18 1.86Q8.78 2.98 9.24 4.26Q9.70 5.54 9.95 6.91Q10.20 8.28 10.20 9.53L10.20 9.53Q10.20 10.78 9.92 12.10Q9.65 13.42 9.16 14.68Q8.66 15.94 8.02 17.06Q7.37 18.19 6.61 19.08Q5.86 19.97 5.04 20.53Q4.22 21.10 3.41 21.24L3.41 21.24Q1.75 21.05 0.88 20.17Q0 19.30 0 17.76L0 17.76Q0 16.94 0.25 15.98Q0.50 15.02 0.92 14.08Q1.34 13.13 1.91 12.23Q2.47 11.33 3.11 10.61Q3.74 9.89 4.39 9.38Q5.04 8.88 5.66 8.74ZM3.22 20.28L3.22 20.28Q4.06 19.99 4.90 19.01Q5.74 18.02 6.41 16.69Q7.08 15.36 7.50 13.84Q7.92 12.31 7.92 10.90L7.92 10.90Q7.92 10.49 7.92 10.39Q7.92 10.30 7.90 10.20L7.90 10.20Q7.32 10.44 6.67 11.02Q6.02 11.59 5.38 12.35Q4.73 13.10 4.15 13.99Q3.58 14.88 3.12 15.77Q2.66 16.66 2.40 17.47Q2.14 18.29 2.14 18.91L2.14 18.91Q2.14 20.11 3.22 20.28ZM17.35 19.42L17.35 19.42Q16.90 19.03 16.74 18.46Q16.58 17.88 16.58 17.47L16.58 17.47Q16.58 16.97 16.70 16.61L16.70 16.61Q16.61 16.61 16.27 16.99Q15.94 17.38 15.54 17.90Q15.14 18.43 14.76 18.94Q14.38 19.44 14.18 19.68L14.18 19.68Q13.87 20.02 13.60 20.21Q13.32 20.40 13.15 20.42L13.15 20.42Q12.77 20.40 12.35 20.27Q11.93 20.14 11.56 19.90Q11.18 19.66 10.91 19.32Q10.63 18.98 10.54 18.55L10.54 18.55Q10.54 17.88 10.57 17.45Q10.61 17.02 10.73 16.51L10.73 16.51Q10.94 15.60 11.36 14.45Q11.78 13.30 12.34 12.18Q12.89 11.06 13.57 10.09Q14.26 9.12 15.02 8.57L15.02 8.57Q15.24 8.57 15.53 8.60Q15.82 8.64 16.12 8.74Q16.42 8.83 16.69 8.96Q16.97 9.10 17.16 9.31L17.16 9.31Q16.94 9.55 16.07 10.92Q15.19 12.29 14.11 14.86L14.11 14.86Q13.99 15.12 13.82 15.62Q13.66 16.13 13.49 16.68Q13.32 17.23 13.21 17.76Q13.10 18.29 13.10 18.60L13.10 18.60Q13.10 18.79 13.16 18.89Q13.22 18.98 13.27 19.03L13.27 19.03Q13.63 18.89 14.18 18.24Q14.74 17.59 15.72 16.25L15.72 16.25Q15.96 15.91 16.28 15.48Q16.61 15.05 16.94 14.56Q17.28 14.06 17.58 13.54Q17.88 13.01 18.07 12.48L18.07 12.48Q18.17 12.19 18.32 11.80Q18.48 11.40 18.71 10.97Q18.94 10.54 19.24 10.09Q19.54 9.65 19.94 9.26L19.94 9.26Q20.26 9.26 20.62 9.34Q20.98 9.41 21.30 9.52Q21.62 9.62 21.86 9.76Q22.10 9.89 22.22 10.03L22.22 10.03Q21.79 11.09 21.26 12.12Q20.74 13.15 20.28 14.15Q19.82 15.14 19.51 16.13Q19.20 17.11 19.20 18.05L19.20 18.05Q19.20 18.55 19.28 18.92Q19.37 19.30 19.46 19.55Q19.56 19.80 19.64 19.97Q19.73 20.14 19.73 20.26L19.73 20.26Q19.73 20.28 19.68 20.33L19.68 20.33Q19.66 20.35 19.63 20.35L19.63 20.35Q19.46 20.35 19.20 20.28Q18.94 20.21 18.61 20.08Q18.29 19.94 17.96 19.78Q17.64 19.61 17.35 19.42ZM25.37 10.75L24.00 10.75Q23.88 10.61 23.78 10.14Q23.69 9.67 23.69 9.34L23.69 9.34Q24.31 9.38 24.89 9.42Q25.46 9.46 25.94 9.48L25.94 9.48Q26.30 8.76 26.72 8.05Q27.14 7.34 27.54 6.76Q27.94 6.17 28.28 5.76Q28.63 5.35 28.82 5.23L28.82 5.23Q29.06 5.23 29.44 5.32Q29.81 5.40 30.19 5.53Q30.58 5.66 30.89 5.81Q31.20 5.95 31.32 6.10L31.32 6.10Q30.60 7.01 30.08 7.79Q29.57 8.57 28.97 9.58L28.97 9.58Q29.45 9.58 29.94 9.55Q30.43 9.53 30.94 9.48L30.94 9.48Q31.06 9.60 31.13 9.78Q31.20 9.96 31.20 10.15L31.20 10.15Q30.02 10.58 28.34 10.63L28.34 10.63Q27.74 11.78 27.28 12.92Q26.81 14.06 26.48 15.12Q26.16 16.18 25.98 17.11Q25.80 18.05 25.80 18.79L25.80 18.79Q25.80 19.85 26.59 19.97L26.59 19.97Q27.31 19.87 27.96 19.61Q28.61 19.34 29.11 18.94L29.11 18.94Q29.26 19.15 29.28 19.30L29.28 19.30Q29.14 19.51 28.79 19.80Q28.44 20.09 28.03 20.36Q27.62 20.64 27.24 20.83Q26.86 21.02 26.66 21.05L26.66 21.05Q26.06 21.02 25.46 20.78Q24.86 20.54 24.37 20.18Q23.88 19.82 23.57 19.38Q23.26 18.94 23.26 18.50L23.26 18.50Q23.26 17.93 23.41 17.05Q23.57 16.18 23.86 15.14Q24.14 14.11 24.53 12.98Q24.91 11.86 25.37 10.75L25.37 10.75ZM40.06 16.22L40.06 16.22Q39.50 17.98 38.95 19.42Q38.40 20.86 37.78 22.07Q37.15 23.28 36.43 24.30Q35.71 25.32 34.85 26.23L34.85 26.23Q33.74 27.38 32.57 28.00Q31.39 28.61 30.22 28.61L30.22 28.61Q29.62 28.61 29.03 28.48Q28.44 28.34 27.92 28.12Q27.41 27.89 27.01 27.59Q26.62 27.29 26.45 26.95L26.45 26.95Q26.45 26.66 26.78 26.45L26.78 26.45Q27.07 26.71 27.26 26.86Q27.46 27 27.64 27.10Q27.82 27.19 28.02 27.22Q28.22 27.24 28.49 27.24L28.49 27.24Q29.86 27.24 31.16 26.44Q32.47 25.63 33.64 24.16Q34.80 22.68 35.76 20.58Q36.72 18.48 37.39 15.89L37.39 15.89Q37.08 16.37 36.62 17.06Q36.17 17.76 35.62 18.44Q35.06 19.13 34.48 19.68Q33.89 20.23 33.34 20.42L33.34 20.42Q32.95 20.40 32.53 20.27Q32.11 20.14 31.74 19.90Q31.37 19.66 31.08 19.32Q30.79 18.98 30.70 18.55L30.70 18.55Q30.70 17.86 30.74 17.44Q30.79 17.02 30.91 16.51L30.91 16.51Q31.13 15.60 31.55 14.45Q31.97 13.30 32.53 12.18Q33.10 11.06 33.78 10.09Q34.46 9.12 35.21 8.57L35.21 8.57Q35.40 8.57 35.69 8.60Q35.98 8.64 36.29 8.74Q36.60 8.83 36.89 8.96Q37.18 9.10 37.39 9.31L37.39 9.31Q37.13 9.55 36.24 10.92Q35.35 12.29 34.27 14.86L34.27 14.86Q34.15 15.12 33.98 15.62Q33.82 16.13 33.66 16.68Q33.50 17.23 33.38 17.76Q33.26 18.29 33.26 18.60L33.26 18.60Q33.26 18.79 33.32 18.89Q33.38 18.98 33.43 19.03L33.43 19.03Q33.86 18.96 34.58 18.32Q35.30 17.69 36.22 16.34L36.22 16.34Q36.79 15.48 37.27 14.63Q37.75 13.78 38.22 12.91Q38.69 12.05 39.19 11.14Q39.70 10.22 40.27 9.26L40.27 9.26Q40.58 9.26 40.94 9.34Q41.30 9.41 41.64 9.52Q41.98 9.62 42.23 9.76Q42.48 9.89 42.60 10.03L42.60 10.03Q41.86 11.62 41.21 13.13Q40.56 14.64 40.06 16.22Z" transform="translate(50.383, 4.529)"></path></svg>